<svg id="visual" viewBox="0 0 900 600" width="900" height="600" xmlns="http://www.w3.org/2000/svg" xmlns:xlink="http://www.w3.org/1999/xlink" version="1.1"><rect x="0" y="0" width="900" height="600" fill="#001220"></rect><path d="M0 153L21.5 151.7C43 150.3 86 147.7 128.8 132.5C171.7 117.3 214.3 89.7 257.2 86.3C300 83 343 104 385.8 115.3C428.7 126.7 471.3 128.3 514.2 115.3C557 102.3 600 74.7 642.8 79.8C685.7 85 728.3 123 771.2 140.2C814 157.3 857 153.7 878.5 151.8L900 150L900 0L878.5 0C857 0 814 0 771.2 0C728.3 0 685.7 0 642.8 0C600 0 557 0 514.2 0C471.3 0 428.7 0 385.8 0C343 0 300 0 257.2 0C214.3 0 171.7 0 128.8 0C86 0 43 0 21.5 0L0 0Z" fill="#6996fa"></path><path d="M0 87L21.5 85.2C43 83.3 86 79.7 128.8 74.3C171.7 69 214.3 62 257.2 56C300 50 343 45 385.8 57.7C428.7 70.3 471.3 100.7 514.2 104.7C557 108.7 600 86.3 642.8 80.3C685.7 74.3 728.3 84.7 771.2 89C814 93.3 857 91.7 878.5 90.8L900 90L900 0L878.5 0C857 0 814 0 771.2 0C728.3 0 685.7 0 642.8 0C600 0 557 0 514.2 0C471.3 0 428.7 0 385.8 0C343 0 300 0 257.2 0C214.3 0 171.7 0 128.8 0C86 0 43 0 21.5 0L0 0Z" fill="#4976e1"></path><path d="M0 9L21.5 16C43 23 86 37 128.8 39.2C171.7 41.3 214.3 31.7 257.2 23.7C300 15.7 343 9.3 385.8 15.2C428.7 21 471.3 39 514.2 52.7C557 66.3 600 75.7 642.8 73.2C685.7 70.7 728.3 56.3 771.2 53.8C814 51.3 857 60.7 878.5 65.3L900 70L900 0L878.5 0C857 0 814 0 771.2 0C728.3 0 685.7 0 642.8 0C600 0 557 0 514.2 0C471.3 0 428.7 0 385.8 0C343 0 300 0 257.2 0C214.3 0 171.7 0 128.8 0C86 0 43 0 21.5 0L0 0Z" fill="#2456c7"></path></svg>